<svg xmlns="http://www.w3.org/2000/svg" version="1.1" xmlns:xlink="http://www.w3.org/1999/xlink" xmlns:svgjs="http://svgjs.dev/svgjs" width="1000" height="999" viewBox="0 0 1000 999"><g transform="matrix(1,0,0,1,-0.2157434402332683,-0.21552769679306039)"><svg viewBox="0 0 343 343" data-background-color="#333333" preserveAspectRatio="xMidYMid meet" height="999" width="1000" xmlns="http://www.w3.org/2000/svg" xmlns:xlink="http://www.w3.org/1999/xlink"><g id="tight-bounds" transform="matrix(1,0,0,1,0.07400000000001228,0.07400000000001228)"><svg viewBox="0 0 342.8515585177538 342.8515585177538" height="342.8515585177538" width="342.8515585177538"><g><svg></svg></g><g><svg viewBox="0 0 342.8515585177538 342.8515585177538" height="342.8515585177538" width="342.8515585177538"><g><path d="M0 171.426c0-94.676 76.75-171.426 171.426-171.426 94.676 0 171.426 76.75 171.426 171.426 0 94.676-76.75 171.426-171.426 171.426-94.676 0-171.426-76.75-171.426-171.426zM171.426 338.996c92.547 0 167.571-75.024 167.57-167.57 0-92.547-75.024-167.571-167.57-167.571-92.547 0-167.571 75.024-167.571 167.571 0 92.547 75.024 167.571 167.571 167.57z" data-fill-palette-color="tertiary" fill="#7fc37e" stroke="transparent"></path><ellipse rx="164.56874808852183" ry="164.56874808852183" cx="171.4257792588769" cy="171.4257792588769" fill="#7fc37e" stroke="transparent" stroke-width="0" fill-opacity="1" data-fill-palette-color="tertiary"></ellipse></g><g transform="matrix(1,0,0,1,64.84655864529836,115.46596478124114)"><svg viewBox="0 0 213.15844122715708 111.91962895527152" height="111.91962895527152" width="213.15844122715708"><g><svg viewBox="0 0 213.15844122715708 111.91962895527152" height="111.91962895527152" width="213.15844122715708"><g transform="matrix(1,0,0,1,0,69.17082068718781)"><svg viewBox="0 0 213.15844122715708 42.7488082680837" height="42.7488082680837" width="213.15844122715708"><g id="textblocktransform"><svg viewBox="0 0 213.15844122715708 42.7488082680837" height="42.7488082680837" width="213.15844122715708" id="textblock"><g><svg viewBox="0 0 213.15844122715708 42.7488082680837" height="42.7488082680837" width="213.15844122715708"><g transform="matrix(1,0,0,1,0,0)"><svg width="213.15844122715708" viewBox="1.25 -35.75 181.99000549316406 36.5" height="42.7488082680837" data-palette-color="#333333"><path d="M8.75 0L8.75-0.75 11.75-1.5 11.75-33.75 6-33.75Q6-30.7 4.35-27.9L4.35-27.9Q3.65-26.75 2.75-26L2.75-26 1.25-26 1.25-35 30.5-35 30.5-26 29-26Q28.05-26.75 27.35-27.9L27.35-27.9Q25.75-30.6 25.75-33.75L25.75-33.75 20-33.75 20-1.5 23-0.75 23 0 8.75 0ZM32.75 0L32.75-0.75 35.75-1.5 35.75-23.5 32.75-24.25 32.75-25 39.25-25Q43.75-25 43.75-20.5L43.75-20.5 43.75-1.5 46.75-0.75 46.75 0 32.75 0ZM39.25-28Q37.75-28 36.75-29 35.75-30 35.75-31.5L35.75-31.5Q35.75-33 36.75-34 37.75-35 39.25-35L39.25-35Q40.75-35 41.75-34 42.75-33 42.75-31.5L42.75-31.5Q42.75-30 41.75-29 40.75-28 39.25-28L39.25-28ZM49.75 0L49.75-0.75 52.75-1.5 52.75-23.5 49.75-24.25 49.75-25 54.25-25Q57.2-25 58.9-23.1L58.9-23.1Q59.55-22.35 60-21.25L60-21.25Q60.75-22.65 61.6-23.5L61.6-23.5Q63.85-25.75 66.75-25.75L66.75-25.75Q69.65-25.75 71.84-24.48 74.05-23.2 75.25-21L75.25-21Q76-22.45 76.84-23.35L76.84-23.35Q79.15-25.75 82-25.75L82-25.75Q84.65-25.75 86.77-24.65 88.9-23.55 90.07-21.65 91.25-19.75 91.25-17.5L91.25-17.5 91.25-1.5 94.25-0.75 94.25 0 87.75 0Q83.25 0 83.25-4.5L83.25-4.5 83.25-17.5Q83.25-20.75 82.25-22.38 81.25-24 80-24L80-24Q78.55-24 77.05-22L77.05-22Q76.45-21.05 76-20L76-20 76-1.5 79-0.75 79 0 65 0 65-0.75 68-1.5 68-17.5Q68-20.75 67-22.38 66-24 64.75-24L64.75-24Q63.3-24 61.8-22L61.8-22Q61.2-21.05 60.75-20L60.75-20 60.75-1.5 63.75-0.75 63.75 0 49.75 0ZM106.99 0.75Q102.54 0.75 100.14-1.15 97.74-3.05 97.74-6L97.74-6Q97.74-7.95 98.59-9.85L98.59-9.85Q98.94-10.75 99.49-11.5L99.49-11.5Q101.54-12 103.94-12.4L103.94-12.4Q109.34-13.3 113.49-13.5L113.49-13.5 113.49-15Q113.49-20.55 112.14-22.65 110.79-24.75 107.99-24.75L107.99-24.75Q106.94-24.75 106.19-24.5L106.19-24.5 105.49-24.25 105.49-16.75 104.84-16.6Q104.04-16.5 103.49-16.5L103.49-16.5Q101.79-16.5 100.77-17.53 99.74-18.55 99.74-20.25L99.74-20.25Q99.74-22.55 102.07-24.15 104.39-25.75 108.99-25.75L108.99-25.75Q112.89-25.75 115.72-24.38 118.54-23 120.02-20.58 121.49-18.15 121.49-15L121.49-15 121.49-1.5 124.49-0.75 124.49 0 119.99 0Q116.99 0 115.34-1.85L115.34-1.85Q114.64-2.6 114.24-3.75L114.24-3.75Q113.54-2.5 112.59-1.5L112.59-1.5Q110.34 0.75 106.99 0.75L106.99 0.75ZM108.99-1Q110.84-1 112.34-3L112.34-3Q112.89-3.75 113.49-5L113.49-5 113.49-12.25Q111.19-12.25 109.09-12L109.09-12Q107.54-11.8 106.99-11.75L106.99-11.75Q106.74-11.2 106.49-10.25L106.49-10.25Q105.99-8.35 105.99-6.5L105.99-6.5Q105.99-3.7 106.84-2.35 107.69-1 108.99-1L108.99-1ZM140.24 0.75Q136.69 0.75 133.59-0.85L133.59-0.85Q132.19-1.55 131.24-2.5L131.24-2.5Q130.54-1.35 129.49-0.45L129.49-0.45Q128.59 0.2 128.49 0.25L128.49 0.25 127.24 0.25 127.24-9.25 129.24-9.25Q129.99-6.8 131.34-4.85L131.34-4.85Q134.39-0.5 139.24-0.5L139.24-0.5Q142.09-0.5 143.79-2.2 145.49-3.9 145.49-6.75L145.49-6.75Q145.49-8.4 144.52-9.7 143.54-11 142.09-12 140.64-13 138.04-14.5L138.04-14.5Q134.74-16.35 132.69-17.85 130.64-19.35 129.19-21.63 127.74-23.9 127.74-27L127.74-27Q127.74-29.45 129.12-31.43 130.49-33.4 133.24-34.58 135.99-35.75 139.99-35.75L139.99-35.75Q142.89-35.75 145.79-34.1L145.79-34.1Q146.89-33.5 147.99-32.5L147.99-32.5Q148.84-33.8 149.74-34.55L149.74-34.55Q150.64-35.2 150.74-35.25L150.74-35.25 151.99-35.25 151.99-25.75 149.99-25.75Q149.34-28.15 148.04-30.1L148.04-30.1Q146.84-32 145.06-33.25 143.29-34.5 140.99-34.5L140.99-34.5Q139.04-34.5 137.64-32.95 136.24-31.4 136.24-29L136.24-29Q136.24-27.15 137.31-25.68 138.39-24.2 139.97-23.1 141.54-22 144.24-20.45L144.24-20.45Q147.39-18.65 149.34-17.25 151.29-15.85 152.64-13.78 153.99-11.7 153.99-9L153.99-9Q153.99-6.3 152.44-4.08 150.89-1.85 147.79-0.55 144.69 0.75 140.24 0.75L140.24 0.75ZM168.24 0.5L155.74-23.5 153.24-24.25 153.24-25 159.49-25Q162.09-25 163.61-23.93 165.14-22.85 166.24-20.75L166.24-20.75 172.19-9.2 177.74-22.75 173.99-24.25 173.99-25 183.24-25 183.24-24.25 179.24-22.75 169.74 0.5 168.24 0.5Z" opacity="1" transform="matrix(1,0,0,1,0,0)" fill="#333333" class="wordmark-text-0" data-fill-palette-color="quaternary" id="text-0"></path></svg></g></svg></g></svg></g></svg></g><g transform="matrix(1,0,0,1,47.646050940660146,0)"><svg viewBox="0 0 117.86633934583679 59.078853026491686" height="59.078853026491686" width="117.86633934583679"><g><svg xmlns="http://www.w3.org/2000/svg" xmlns:xlink="http://www.w3.org/1999/xlink" xml:space="preserve" style="shape-rendering:geometricPrecision;text-rendering:geometricPrecision;image-rendering:optimizeQuality;" viewBox="0.0000020265579223632812 0.0000027120113372802734 14.727499008178711 7.38195276260376" x="0" y="0" fill-rule="evenodd" clip-rule="evenodd" width="117.86633934583679" height="59.078853026491686" class="icon-icon-0" data-fill-palette-color="quaternary" id="icon-0"><g fill="#333333" data-fill-palette-color="quaternary"><path class="" d="M1.757 3.091c-0.313 0.444-0.296 1.331-0.417 1.95-0.153 0.784-0.711 1.203-1.34 1.534 0.188-0.771 0.348-1.542 0.412-2.313 0.078-0.953-0.06-0.891 0.767-1.575 1.159-0.961 3.04-1.741 5.848-2.29 2.456-0.406 5.049-0.453 7.701-0.351-0.89 1.809-3.733 1.961-7.203 1.581-1.811 0.02-3.495-0.488-5.768 1.464z m8.33 2.781c-3.895 2.038-7.803-2.284-9.165 0.688 2.104-1.831 5.079 3.183 9.165-0.688z m2.489-2.547c-4.49 2.72-9.502-0.792-10.907 1.859 3.412-1.235 7.765 2.753 10.907-1.859z m0.834-1.478c-3.944 1.761-10.043-1.402-11.565 2.239 3.106-1.808 8.446 1.438 11.565-2.239z" fill="#333333" data-fill-palette-color="quaternary"></path></g></svg></g></svg></g><g></g></svg></g></svg></g></svg></g><defs></defs></svg><rect width="342.8515585177538" height="342.8515585177538" fill="none" stroke="none" visibility="hidden"></rect></g></svg></g></svg>