<?xml version="1.0" encoding="UTF-8"?> <svg xmlns="http://www.w3.org/2000/svg" id="Слой_1" data-name="Слой 1" viewBox="0 0 132.45 131.34"><defs><style>.cls-1{fill:#0083c1;}.cls-2{fill:#cfd1d2;}.cls-3{fill:#fff;}.cls-4{fill:#f9b524;}.cls-5{fill:#0099d3;}</style></defs><path class="cls-1" d="M37.33,8.71l.93-.42,1.88,4.13-.93.43Z" transform="translate(-2.27 -3.41)"></path><path class="cls-2" d="M58.76,21.16h38A2.13,2.13,0,0,0,98.91,19v-.37a2.13,2.13,0,0,0-2.13-2.14H48l-1.22.41,1.78,4.24ZM55.61,17a1.88,1.88,0,1,1-1.88,1.88A1.88,1.88,0,0,1,55.61,17" transform="translate(-2.27 -3.41)"></path><path class="cls-2" d="M132.59,48.2H101.77V32.74H128a2.13,2.13,0,0,0,2.13-2.13v-.38A2.13,2.13,0,0,0,128,28.1H66.89V25.28a2.13,2.13,0,0,0-2.13-2.14h-.38a2.13,2.13,0,0,0-2.13,2.14V28.1H51.15c-1.18,0-1.35,1-1.35,2.13v.38c0,1.18.17,2.13,1.35,2.13h46V48.2h-8.5V40.67a2.13,2.13,0,0,0-2.13-2.13H48.79c-1.17,0-1.22,1-1.22,2.13v.38c0,1.18-1,2.14,1.22,2.14h9.36v4a2.13,2.13,0,0,0,2.13,2.13h.38a2.13,2.13,0,0,0,2.13-2.13v-4H84v5H80.13A2.13,2.13,0,0,0,78,50.33v.38a2.13,2.13,0,0,0,2.14,2.13H84V78.51H70.44v-22a2.13,2.13,0,0,0-2.13-2.13H45.18V46.51c0-1.18-1,1.32-2.13,1.32h-.38A2.13,2.13,0,0,0,40.54,50v6.91A2.13,2.13,0,0,0,42.67,59H65.8V78.51H62.42V66.75a2.14,2.14,0,0,0-2.14-2.14h-.37a2.14,2.14,0,0,0-2.14,2.14V78.51H42.21V70.6a2.13,2.13,0,0,0-2.14-2.13H39.7a2.13,2.13,0,0,0-2.14,2.13v7.91h-4.4V55.42c0-1.17-1-.94-2.14-.94h-.37a2.13,2.13,0,0,0-2.14,2.13V81a2.13,2.13,0,0,0,2.14,2.13h6.91v34.36a2.14,2.14,0,0,0,2.14,2.13h.37a2.14,2.14,0,0,0,2.14-2.13V83.16H57.77v29.51a2.14,2.14,0,0,0,2.14,2.14h.37a2.14,2.14,0,0,0,2.14-2.14V83.16H65.8v49.46a2.13,2.13,0,0,0,2.14,2.13h.37a2.13,2.13,0,0,0,2.13-2.13V83.16H84v32.65A2.14,2.14,0,0,0,86.12,118h.38a2.13,2.13,0,0,0,2.13-2.14V83.16h25.43A2.13,2.13,0,0,0,116.19,81v-.37a2.13,2.13,0,0,0-2.13-2.14H88.63V66.93h33.68a2.13,2.13,0,0,0,2.14-2.13v-.38a2.13,2.13,0,0,0-2.14-2.13H101.77V52.84h30.82a2.13,2.13,0,0,0,2.13-2.13v-.38a2.13,2.13,0,0,0-2.13-2.13M64.64,32.34a1.88,1.88,0,1,1,1.88-1.88,1.88,1.88,0,0,1-1.88,1.88m15.92,0a1.88,1.88,0,1,1,1.88-1.88,1.89,1.89,0,0,1-1.88,1.88M60.5,42.92A1.88,1.88,0,1,1,62.38,41a1.88,1.88,0,0,1-1.88,1.88m7.55,30.84a1.88,1.88,0,1,1,1.89-1.88,1.88,1.88,0,0,1-1.89,1.88m-28.2,8.9a1.88,1.88,0,1,1,1.88-1.88,1.88,1.88,0,0,1-1.88,1.88M60,98.61a1.88,1.88,0,1,1,1.88-1.88A1.88,1.88,0,0,1,60,98.61m0-16a1.88,1.88,0,1,1,1.88-1.88A1.88,1.88,0,0,1,60,82.66m26.31,0a1.88,1.88,0,1,1,1.88-1.88,1.88,1.88,0,0,1-1.88,1.88m0-30.11a1.88,1.88,0,1,1,1.88-1.88,1.88,1.88,0,0,1-1.88,1.88m10.82,9.74h-8.5V52.84h8.5Zm2.32-9.74a1.88,1.88,0,1,1,1.88-1.88,1.88,1.88,0,0,1-1.88,1.88" transform="translate(-2.27 -3.41)"></path><path class="cls-2" d="M24,65.4V56.82c0-1.18-1-1.46-2.14-1.46h-.37c-1.18,0-2.14.28-2.14,1.46v69a2.13,2.13,0,0,0,2.14,2.13h.37A2.13,2.13,0,0,0,24,125.79Zm-2.36,9.29a1.88,1.88,0,1,1,1.88-1.88,1.88,1.88,0,0,1-1.88,1.88" transform="translate(-2.27 -3.41)"></path><path class="cls-3" d="M46.74,104.75v-38a1.12,1.12,0,0,1,1.19-1h0a1.12,1.12,0,0,1,1.19,1V105l1.65.19V66.51A2.64,2.64,0,0,0,48,64.08H47.9a2.64,2.64,0,0,0-2.81,2.43v38.05Z" transform="translate(-2.27 -3.41)"></path><path class="cls-3" d="M60.82,9.87a49.31,49.31,0,1,0,49.31,49.31A49.31,49.31,0,0,0,60.82,9.87M61,103.68A44.07,44.07,0,0,1,16.61,59.26a40.07,40.07,0,0,1,0-4.9,24.76,24.76,0,0,0,6.88.74A26.1,26.1,0,0,0,49.58,29a25.14,25.14,0,0,0-3.23-12A45.92,45.92,0,0,1,61,14.68a44.2,44.2,0,0,1,44.42,44.58A44.07,44.07,0,0,1,61,103.68" transform="translate(-2.27 -3.41)"></path><path class="cls-2" d="M60.93,9.91a49.06,49.06,0,0,0-20,4.23l-1.16.53-.5.24A21.31,21.31,0,0,1,12.94,47.75c-.14.59-.27,1.18-.39,1.78A49.35,49.35,0,1,0,60.93,9.91m0,96.79a47.41,47.41,0,0,1-46.6-56.3h0A23.07,23.07,0,0,0,42.16,15.68h0a47.44,47.44,0,1,1,18.77,91M13.35,50l.16.07L13.35,50" transform="translate(-2.27 -3.41)"></path><path class="cls-2" d="M49.68,29.19A26.32,26.32,0,0,1,16.5,54.4c-.07.6-.13,1.22-.18,1.85a27,27,0,0,0,8.38,1.16A27.07,27.07,0,0,0,48,16.51L46.45,17a25.78,25.78,0,0,1,3.23,12.19" transform="translate(-2.27 -3.41)"></path><path class="cls-3" d="M74.45,104.35V60.7a1.19,1.19,0,0,1,1.18-1.19h.06a1.19,1.19,0,0,1,1.18,1.19V103l1.66.22V60.45a2.81,2.81,0,0,0-2.81-2.8H75.6a2.8,2.8,0,0,0-2.8,2.8v44Z" transform="translate(-2.27 -3.41)"></path><path class="cls-4" d="M59.85,57.93a2.25,2.25,0,0,0-2.08,2.38v.19a2.24,2.24,0,0,0,2.08,2.38h32a2.23,2.23,0,0,0,2.07-2.38v-.19a2.24,2.24,0,0,0-2.07-2.38Z" transform="translate(-2.27 -3.41)"></path><path class="cls-4" d="M78.3,60.25a2.33,2.33,0,0,0-2.53-2.07h-.21A2.33,2.33,0,0,0,73,60.25v32a2.34,2.34,0,0,0,2.53,2.08h.21a2.34,2.34,0,0,0,2.53-2.08Z" transform="translate(-2.27 -3.41)"></path><path class="cls-3" d="M49.06,105c0-.05,0-.09,0-.14V66.58a1,1,0,0,0-1.09-1h0a1,1,0,0,0-1.09,1v37.9s0,.09,0,.13Z" transform="translate(-2.27 -3.41)"></path><path class="cls-3" d="M76.76,103.93a.76.76,0,0,0,0-.15V60.89a1.09,1.09,0,0,0-1.09-1.09h0a1.09,1.09,0,0,0-1.09,1.09v43.66a.76.76,0,0,0,0,.15Z" transform="translate(-2.27 -3.41)"></path><path class="cls-2" d="M48.42,105.45V67a.45.45,0,0,0-.45-.45h0a.45.45,0,0,0-.46.45v38.45Z" transform="translate(-2.27 -3.41)"></path><path class="cls-3" d="M44.83,29.28A21.28,21.28,0,1,1,23.55,8,21.28,21.28,0,0,1,44.83,29.28" transform="translate(-2.27 -3.41)"></path><path class="cls-4" d="M60.94,12.28a47.25,47.25,0,0,0-16.28,2.88c-.59.22-1.18.46-1.77.7A23.49,23.49,0,0,1,23.71,52.92a22.45,22.45,0,0,1-9-1.69c-.11.62-.21,1.25-.3,1.88a48,48,0,0,0-.28,6.49c0,26.05,20.78,46.49,46.82,46.49a46.91,46.91,0,0,0,0-93.81M49.07,104.62c-.65-.17-1.31-.33-2.23-.62l0-37.33a1.09,1.09,0,0,1,1.09-1.09h0A1.09,1.09,0,0,1,49,66.67Zm27.66-1.19c-.73.27-1.48.49-2.23.72V60.84a1.09,1.09,0,0,1,1.09-1.09h0a1.09,1.09,0,0,1,1.09,1.09Zm1.52-2.5V60.62A2.58,2.58,0,0,0,75.67,58h-.11A2.57,2.57,0,0,0,73,60.62V102.7a46.58,46.58,0,0,1-22.44.42V66.92A2.58,2.58,0,0,0,48,64.34h-.12a2.58,2.58,0,0,0-2.57,2.58v34.66a44.3,44.3,0,0,1-29.36-42c0-2-.09-4,0-5.92l.17,0a24.11,24.11,0,0,0,7.59,1.05A25.35,25.35,0,0,0,45.64,16.72,45.1,45.1,0,0,1,106,59.43a44.55,44.55,0,0,1-27.72,41.5" transform="translate(-2.27 -3.41)"></path><path class="cls-5" d="M28.1,12.4s-.24-2.31-.37-3.27a20.57,20.57,0,0,0-3.36-.39Z" transform="translate(-2.27 -3.41)"></path><path class="cls-5" d="M36.94,13.55a21.07,21.07,0,0,0-4.22-2.74c-1,.63-3.37,2-3.37,2s5.08,0,7.59.72" transform="translate(-2.27 -3.41)"></path><path class="cls-5" d="M28.72,12.51S31,10.9,31.78,10.38a20.46,20.46,0,0,0-3.21-1.06Z" transform="translate(-2.27 -3.41)"></path><path class="cls-5" d="M28.86,27.39c7.46.94,11.68-1.34,13.85-5.89a20.72,20.72,0,0,0-4.59-6.81h0a35.25,35.25,0,0,0-7.65-1.16,16,16,0,0,1-3.1-1,53.82,53.82,0,0,0-4.77-3.75,20.56,20.56,0,0,0-11.39,4.13c-.11,7.79,7.92,13.27,17.69,14.5" transform="translate(-2.27 -3.41)"></path><path class="cls-5" d="M28.24,28c-9.46-1.23-17.63-6.83-17.46-14.83a20.66,20.66,0,1,0,32.1,8.74C40.69,26.82,36.12,29,28.24,28" transform="translate(-2.27 -3.41)"></path><path class="cls-3" d="M42.85,36.42a23.21,23.21,0,0,0-3-11.89C36,17.7,32,15,30.23,14.08a23.34,23.34,0,0,1,13.23,9.35,18.62,18.62,0,0,0-.63-1.77,24.05,24.05,0,0,0-12.58-8.17,4.68,4.68,0,0,1-.52-.12v-.14l-2.34-.72s-3-2-11.69-2.47a1.66,1.66,0,0,0-1.56.8,30.12,30.12,0,0,1,5.12.15,26.12,26.12,0,0,1,7.32,1.81,24.77,24.77,0,0,0-2.88-.16,24.38,24.38,0,0,0-19.27,9.2c-.25.66-.48,1.32-.67,2a8.72,8.72,0,0,1,0-.89c.13-1.86-.37-1.28-.44.89a12.1,12.1,0,0,0,2.42,7.38,19.64,19.64,0,0,0-1.2,6c0,1.72.14,1.56.31,1.76s.4,1.26.26,0a19.82,19.82,0,0,1,1.08-7.23,25,25,0,0,0,6.45,5.75,63.64,63.64,0,0,0-1.84,8.49l.59.54A63.16,63.16,0,0,1,13.32,38a33.79,33.79,0,0,0,9.41,3.89A69.14,69.14,0,0,1,19,49.8h.81a62.32,62.32,0,0,0,3.75-7.74,27.73,27.73,0,0,0,3.74.56,30.1,30.1,0,0,0,6.22-.12c-.37,2.09-.83,3.76-1.28,5.92l.75-.31c.44-2.08.89-3.69,1.28-5.72a12.74,12.74,0,0,0,8-4.16,4.42,4.42,0,0,0,.56-.87,2.22,2.22,0,0,0,.08-.95M3.76,23.85a23.67,23.67,0,0,1,20-10.64c.85,0,1.69,0,2.52.13A26.36,26.36,0,0,0,13.2,19.59,26.81,26.81,0,0,0,6.05,30.45a12.18,12.18,0,0,1-2.29-6.6m2.72,7.21A25.81,25.81,0,0,1,13.6,20.2c6.1-5.43,11-6,13.15-6.35-3.84,3.14-7.9,8.42-11.36,16.24a58.75,58.75,0,0,0-2.49,6.73,24.13,24.13,0,0,1-6.42-5.76m7.07,6.16A60.09,60.09,0,0,1,16,30.68c3.65-8.23,8-13.65,12-16.72.51,5.69-.73,13.33-2.81,20.65A67.36,67.36,0,0,1,23,41.11a33.9,33.9,0,0,1-9.49-3.89m14.36,4.66a30.86,30.86,0,0,1-4.08-.59c1.11-2.9,1.63-5,2.14-6.68,1.85-6,3.2-15.14,2.91-20.25a34.65,34.65,0,0,1,5.5,19,48.16,48.16,0,0,1-.77,8.38,27.81,27.81,0,0,1-5.7.13m6.46-.25A43.65,43.65,0,0,0,35.14,33a36.1,36.1,0,0,0-5.28-18.59,45.06,45.06,0,0,1,5.35,4.8,27.07,27.07,0,0,1,7,18.08,12.35,12.35,0,0,1-7.84,4.32" transform="translate(-2.27 -3.41)"></path><path class="cls-1" d="M39.34,7.85l.95-.36.63,1.63,1.58-.6-.63-1.63,1-.37,1.62,4.24-1,.37-.67-1.78L41.24,10l.68,1.77-1,.37Z" transform="translate(-2.27 -3.41)"></path><path class="cls-1" d="M47.93,8.65l.37.73a2.82,2.82,0,0,1-1.06.51,2.37,2.37,0,0,1-1.87-.12,2.27,2.27,0,0,1-1-1.41,2.23,2.23,0,0,1,.19-1.89,2.87,2.87,0,0,1,2.65-1.22l0,.83a2.38,2.38,0,0,0-.87.08,1.48,1.48,0,0,0-.9.66A1.5,1.5,0,0,0,45.34,8a1.48,1.48,0,0,0,.67.93A1.4,1.4,0,0,0,47.14,9,2.33,2.33,0,0,0,47.93,8.65Z" transform="translate(-2.27 -3.41)"></path><path class="cls-1" d="M50,9.26l-.75-3.6L48,5.91l-.17-.84,3.41-.71.18.84-1.21.25L51,9.06Z" transform="translate(-2.27 -3.41)"></path><path class="cls-1" d="M52.05,4.21,53,4.1l.17,1.33c.09.72.16,1.4.2,2.05h0c.18-.59.39-1.16.61-1.71l.75-1.89,1-.14.57,4.51-.94.12L55.23,7c-.09-.79-.15-1.42-.16-1.91h0a13.58,13.58,0,0,1-.57,1.7l-.71,1.74-1.15.15Z" transform="translate(-2.27 -3.41)"></path><path class="cls-1" d="M58,8.12l-.17-3.67-1.22.06,0-.87,3.48-.16,0,.86L58.9,4.4l.17,3.68Z" transform="translate(-2.27 -3.41)"></path><path class="cls-1" d="M60.55,3.41l1.16,0,.61,1.65c0,.12.09.28.16.47s.11.33.14.41h0c0-.05,0-.17.11-.36s.11-.37.16-.52l.53-1.6,1.09,0-.92,2.22a7.67,7.67,0,0,1-1,1.78,1.49,1.49,0,0,1-1.22.56,1.21,1.21,0,0,1-.5-.09L61,7.18a1.63,1.63,0,0,0,.34.05.65.65,0,0,0,.39-.12A.71.71,0,0,0,62,6.83a.28.28,0,0,0,0-.22Z" transform="translate(-2.27 -3.41)"></path><path class="cls-1" d="M65.84,8.29l.38-3.66L65,4.5l.09-.85L68.56,4l-.09.86-1.23-.13L66.86,8.4Z" transform="translate(-2.27 -3.41)"></path><path class="cls-1" d="M70.7,9l.73-3.61-1.2-.24.17-.85,3.42.7-.17.84L72.44,5.6l-.73,3.6Z" transform="translate(-2.27 -3.41)"></path><path class="cls-1" d="M76.71,7.63l-.22.81L74.88,8l-.29,1,1.8.5-.22.81-2.79-.77,1.21-4.38,2.7.75-.23.81-1.7-.47-.26.91Z" transform="translate(-2.27 -3.41)"></path><path class="cls-1" d="M78.72,6.36l2.87,1-1.54,4.27-1-.35,1.26-3.48-1-.35L79,8.5a5.74,5.74,0,0,1-.71,1.43,1.43,1.43,0,0,1-.92.61,1.83,1.83,0,0,1-.92-.09l.16-.83a.79.79,0,0,0,.57,0A2.38,2.38,0,0,0,78,8.23Z" transform="translate(-2.27 -3.41)"></path><path class="cls-1" d="M84.36,10.6l-.35.77-1.52-.69-.44,1,1.7.77-.35.77L80.77,12l1.86-4.14L85.18,9l-.34.77-1.62-.73-.39.86Z" transform="translate(-2.27 -3.41)"></path><path class="cls-1" d="M86.18,9.48l.89.48-.9,1.66.08.05,2-1.07,1.1.59-2.36,1a1.19,1.19,0,0,1,.39.63,2,2,0,0,1,0,.82c-.13.75-.2,1.25-.22,1.51l-1-.53c0-.13.06-.48.17-1.05a2,2,0,0,0,0-.75.74.74,0,0,0-.41-.47l-.17-.1L84.91,14,84,13.47Z" transform="translate(-2.27 -3.41)"></path><path class="cls-1" d="M91.54,12.49a2,2,0,0,1,1,1.42,2.42,2.42,0,0,1-.42,1.69,2.47,2.47,0,0,1-1.48,1.13,2.13,2.13,0,0,1-1.7-.35A2,2,0,0,1,88,15a2.45,2.45,0,0,1,.43-1.7,2.42,2.42,0,0,1,1.45-1.09A2,2,0,0,1,91.54,12.49Zm0,1.48a.91.91,0,0,0-.43-.81.92.92,0,0,0-.91-.08,2,2,0,0,0-.86.76A1.8,1.8,0,0,0,89,14.93a1,1,0,0,0,1.35.87,1.92,1.92,0,0,0,.85-.77A1.88,1.88,0,0,0,91.51,14Z" transform="translate(-2.27 -3.41)"></path><path class="cls-1" d="M94.26,20.27l1-1.4c.44-.58.82-1.07,1.15-1.47h0c-.51.37-1,.72-1.51,1l-1.54,1-.62-.5.72-1.67c.23-.52.49-1.07.8-1.64h0L93,17.06l-1.15,1.28-.74-.59,3.08-3.35,1.06.86-.61,1.46q-.33.78-.72,1.5l0,0c.49-.39,1-.72,1.36-1l1.32-.87,1,.84L95,20.9Z" transform="translate(-2.27 -3.41)"></path><path class="cls-1" d="M98.35,17.81l.83.81-.67,1.64c-.05.11-.11.26-.2.45l-.17.39v0l.34-.2.46-.27,1.48-.82.78.76L99,21.6a7.45,7.45,0,0,1-1.9.67,1.44,1.44,0,0,1-1.28-.41,1.4,1.4,0,0,1-.32-.4l.63-.54a1.6,1.6,0,0,0,.22.26.65.65,0,0,0,.36.18.74.74,0,0,0,.37-.05.25.25,0,0,0,.14-.17Z" transform="translate(-2.27 -3.41)"></path><path class="cls-1" d="M101.75,21.18l.68.77-1.32,1.15,1.12,1.27,1.31-1.15.67.77-3.41,3-.68-.77L101.55,25l-1.11-1.27L99,24.94l-.68-.77Z" transform="translate(-2.27 -3.41)"></path><path class="cls-1" d="M104.8,24.81l.63.81-3.6,2.77-.62-.81Z" transform="translate(-2.27 -3.41)"></path><path class="cls-1" d="M106.09,26.5l.57.84L105.1,28.4l.05.08,2.27,0,.7,1-2.56-.17a1.23,1.23,0,0,1,.06.75,2.19,2.19,0,0,1-.37.73c-.46.6-.76,1-.89,1.24l-.62-.92a10.23,10.23,0,0,1,.63-.85,1.87,1.87,0,0,0,.36-.65.68.68,0,0,0-.14-.61l-.11-.16-1.56,1.07-.57-.84Z" transform="translate(-2.27 -3.41)"></path><path class="cls-1" d="M106.81,34l-.64-1.13-1.17.29-.53-.92,4.63-1,.67,1.17-3.25,3.48-.55-1Zm.1-1.38.5.87.69-.72.65-.63v0l-.4.12-.46.14Z" transform="translate(-2.27 -3.41)"></path><path class="cls-1" d="M110.86,34.35l.43.93-3.36,1.54.66,1.44L112,36.72l.43.94L109,39.21l.16.43-1.77.76-.32-.71,1-.53-1.33-2.92Z" transform="translate(-2.27 -3.41)"></path><path class="cls-1" d="M112.84,38.82l.37,1L109,41.41l-.37-1Z" transform="translate(-2.27 -3.41)"></path><path class="cls-1" d="M113.65,40.8l.28.9-1.28.4c-.69.21-1.35.4-2,.56v0c.61.07,1.21.17,1.79.29l2,.4.31,1-4.33,1.35-.29-.9,1.28-.4c.76-.23,1.37-.4,1.85-.5v0a13.56,13.56,0,0,1-1.78-.25l-1.84-.4-.34-1.11Zm1.25.52.21.66q-.39.15-.3.42c0,.17.21.23.48.17l.21.66c-.54.13-.91-.12-1.1-.73A.85.85,0,0,1,114.9,41.32Z" transform="translate(-2.27 -3.41)"></path><path class="cls-1" d="M115.31,46.79l.22,1-4.44,1-.22-1Z" transform="translate(-2.27 -3.41)"></path><path class="cls-1" d="M116,50.24l.38,2.72-.83.12-.24-1.7-3.66.52-.15-1Z" transform="translate(-2.27 -3.41)"></path><path class="cls-1" d="M116.47,53.8l.22,3.05-4.53.34-.07-1,3.69-.27-.08-1-1.07.08a5.63,5.63,0,0,1-1.59-.06,1.43,1.43,0,0,1-.94-.59,1.84,1.84,0,0,1-.29-.88l.82-.19a.78.78,0,0,0,.28.5,2.37,2.37,0,0,0,1.58.23Z" transform="translate(-2.27 -3.41)"></path><path class="cls-1" d="M116.82,60.07a2,2,0,0,1-.68,1.57,2.73,2.73,0,0,1-3.4-.09,2.13,2.13,0,0,1-.62-1.63,2,2,0,0,1,.69-1.55,2.46,2.46,0,0,1,1.67-.55,2.5,2.5,0,0,1,1.69.64A2.08,2.08,0,0,1,116.82,60.07Zm-1.27.76A.89.89,0,0,0,116,60a.93.93,0,0,0-.42-.82,1.93,1.93,0,0,0-1.1-.31,1.82,1.82,0,0,0-1.11.28.93.93,0,0,0-.43.8.88.88,0,0,0,.42.8,1.94,1.94,0,0,0,1.1.32A2,2,0,0,0,115.55,60.83Z" transform="translate(-2.27 -3.41)"></path><path class="cls-3" d="M92.49,60.39a1,1,0,0,1-.88,1.09H60a1.12,1.12,0,0,1,0-2.19H91.61a1,1,0,0,1,.88,1.1" transform="translate(-2.27 -3.41)"></path><path class="cls-2" d="M76.13,105.45V60.87a.46.46,0,0,0-.46-.46h0a.45.45,0,0,0-.45.46v44.58Z" transform="translate(-2.27 -3.41)"></path><path class="cls-2" d="M60.52,60a.44.44,0,0,0-.44.44.44.44,0,0,0,.44.44h7.71a.44.44,0,0,0,.44-.44.44.44,0,0,0-.44-.44Z" transform="translate(-2.27 -3.41)"></path><path class="cls-3" d="M44.86,60.12a3.31,3.31,0,1,0,3.3-3.3,3.31,3.31,0,0,0-3.3,3.3" transform="translate(-2.27 -3.41)"></path><path class="cls-2" d="M67.9,60a.43.43,0,0,0-.44.44.44.44,0,0,0,.44.44h7.7a.45.45,0,0,0,.45-.44A.44.44,0,0,0,75.6,60Z" transform="translate(-2.27 -3.41)"></path><path class="cls-2" d="M75.77,60a.44.44,0,0,0-.45.44.45.45,0,0,0,.45.44h7.7a.44.44,0,0,0,.44-.44.43.43,0,0,0-.44-.44Z" transform="translate(-2.27 -3.41)"></path><path class="cls-2" d="M83.48,60a.43.43,0,0,0-.44.44.44.44,0,0,0,.44.44h7.7a.45.45,0,0,0,.45-.44.44.44,0,0,0-.45-.44Z" transform="translate(-2.27 -3.41)"></path><path class="cls-4" d="M45,60.19a3.12,3.12,0,1,0,3.12-3.12A3.12,3.12,0,0,0,45,60.19" transform="translate(-2.27 -3.41)"></path><path class="cls-3" d="M46.54,60.19a1.63,1.63,0,1,0,1.62-1.63,1.63,1.63,0,0,0-1.62,1.63" transform="translate(-2.27 -3.41)"></path><path class="cls-2" d="M49,60.19a.84.84,0,0,1-.84.83.83.83,0,0,1-.83-.83.84.84,0,0,1,.83-.84.85.85,0,0,1,.84.84" transform="translate(-2.27 -3.41)"></path><path class="cls-1" d="M116.61,63.13l-.3,3-.83-.08.2-2L114.9,64a5.24,5.24,0,0,1,0,.55,2.15,2.15,0,0,1-.49,1.24,1.3,1.3,0,0,1-1.14.42,1.34,1.34,0,0,1-1-.53,2.8,2.8,0,0,1-.34-1.89,6.72,6.72,0,0,1,.18-1.08Zm-2.46.79-1.42-.14a2.77,2.77,0,0,0-.06.38,1,1,0,0,0,.16.69.7.7,0,0,0,.51.27.61.61,0,0,0,.53-.19,1.11,1.11,0,0,0,.27-.66A3.13,3.13,0,0,0,114.15,63.92Z" transform="translate(-2.27 -3.41)"></path><path class="cls-1" d="M112.43,69.14l.23-1.28-1.09-.52.18-1L116,68.46l-.24,1.32-4.72.6.2-1.1Zm1-1-.18,1,1-.11.9-.07h0l-.38-.16-.44-.2Z" transform="translate(-2.27 -3.41)"></path><path class="cls-1" d="M115.17,72.54l-.8,3L110,74.32l.26-1,3.58,1,.26-1-1-.28a5.7,5.7,0,0,1-1.48-.58,1.47,1.47,0,0,1-.69-.87,1.8,1.8,0,0,1,0-.92l.84.09a.8.8,0,0,0,.09.56,2.42,2.42,0,0,0,1.42.74Z" transform="translate(-2.27 -3.41)"></path><path class="cls-1" d="M114,76.59l-.34,1-1.5-.54a3.05,3.05,0,0,1-.14.54,2.17,2.17,0,0,1-.79,1.09,1.31,1.31,0,0,1-1.21.11,1.33,1.33,0,0,1-.81-.68,2.6,2.6,0,0,1,.09-2,8.83,8.83,0,0,1,.44-1Zm-2.57.16-1.35-.48a2.84,2.84,0,0,0-.15.34,1.08,1.08,0,0,0,0,.68.69.69,0,0,0,.45.43.63.63,0,0,0,.6,0,1,1,0,0,0,.39-.54A2.84,2.84,0,0,0,111.44,76.75Z" transform="translate(-2.27 -3.41)"></path><path class="cls-1" d="M112.49,80.6l-.42.93-1.59-.72-.7,1.54,1.59.72L111,84l-4.14-1.88.43-.93L109,82l.7-1.54-1.73-.79.42-.93Z" transform="translate(-2.27 -3.41)"></path><path class="cls-1" d="M109.5,86.9a2,2,0,0,1-1.35,1,2.39,2.39,0,0,1-1.72-.32,2.43,2.43,0,0,1-1.22-1.39,2.16,2.16,0,0,1,.25-1.73,2,2,0,0,1,1.34-1,2.47,2.47,0,0,1,1.73.32,2.44,2.44,0,0,1,1.18,1.38A2,2,0,0,1,109.5,86.9ZM108,87a.87.87,0,0,0,.77-.48.94.94,0,0,0,0-.92,1.87,1.87,0,0,0-.82-.8,1.84,1.84,0,0,0-1.1-.29,1,1,0,0,0-.79,1.4A2.18,2.18,0,0,0,108,87Z" transform="translate(-2.27 -3.41)"></path><path class="cls-1" d="M107.83,89.5l-1.54,2.27-.7-.47,1-1.42-3.06-2.08.58-.84Z" transform="translate(-2.27 -3.41)"></path><path class="cls-1" d="M104.9,93.85a2,2,0,0,1-1.5.83,2.41,2.41,0,0,1-1.65-.57,2.48,2.48,0,0,1-1-1.56,2.14,2.14,0,0,1,.51-1.67,1.94,1.94,0,0,1,1.48-.82,2.69,2.69,0,0,1,2.62,2.11A2.07,2.07,0,0,1,104.9,93.85Zm-1.47-.17a.92.92,0,0,0,.84-.35,1,1,0,0,0,.16-.91,1.89,1.89,0,0,0-.69-.92,1.86,1.86,0,0,0-1-.45.93.93,0,0,0-.83.38.89.89,0,0,0-.15.89,2.19,2.19,0,0,0,1.72,1.36Z" transform="translate(-2.27 -3.41)"></path><path class="cls-1" d="M101.85,97.16l-.7.74-3.3-3.12.7-.74Z" transform="translate(-2.27 -3.41)"></path><path class="cls-1" d="M100.4,98.8l-.75.7-1.19-1.28-1.23,1.16,1.19,1.27-.75.7L94.57,98l.75-.7,1.3,1.39,1.23-1.15-1.3-1.39.75-.7Z" transform="translate(-2.27 -3.41)"></path><path class="cls-1" d="M95.49,103.28l-.76.58-.24-.31a2.51,2.51,0,0,1-.66.32,2.42,2.42,0,0,1-.71.08,1.5,1.5,0,0,1-.74-.22,2.31,2.31,0,0,1-.68-.62,2.25,2.25,0,0,1-.42-.81,1.7,1.7,0,0,1,0-.77,1.92,1.92,0,0,1,.27-.66,2.59,2.59,0,0,1,.48-.59l-.26-.32.76-.59.25.33a2.2,2.2,0,0,1,1.44-.4,1.86,1.86,0,0,1,1.34.82,2.21,2.21,0,0,1,.42.84,1.77,1.77,0,0,1,0,.79,2.45,2.45,0,0,1-.71,1.22ZM94.06,103l-1.64-2.13a1,1,0,0,0-.29.67,1.51,1.51,0,0,0,.39,1,1.48,1.48,0,0,0,.81.61A1,1,0,0,0,94.06,103Zm-.88-2.72,1.64,2.13a1,1,0,0,0,.28-.69,1.53,1.53,0,0,0-.39-.95,1.47,1.47,0,0,0-.8-.58A1,1,0,0,0,93.18,100.27Z" transform="translate(-2.27 -3.41)"></path><path class="cls-1" d="M90.6,106.62a2,2,0,0,1-1.69.28,2.75,2.75,0,0,1-1.78-2.9,2.16,2.16,0,0,1,1-1.4,2,2,0,0,1,1.67-.27,2.36,2.36,0,0,1,1.37,1.1,2.39,2.39,0,0,1,.39,1.76A2,2,0,0,1,90.6,106.62ZM89.27,106a.9.9,0,0,0,.91-.06.93.93,0,0,0,.46-.79,2.19,2.19,0,0,0-1.18-1.87.92.92,0,0,0-.91.07,1,1,0,0,0-.45.79,2,2,0,0,0,.35,1.1A1.91,1.91,0,0,0,89.27,106Z" transform="translate(-2.27 -3.41)"></path><path class="cls-1" d="M85.8,104.11l2.06,4a8.8,8.8,0,0,1-1.19.72,2.22,2.22,0,0,1-1.4.32,1.3,1.3,0,0,1-.92-.72,1.38,1.38,0,0,1-.12-1.14,2.13,2.13,0,0,1,1.09-1.11,2.41,2.41,0,0,1,.32-.14l-.74-1.44Zm.82,3.81L86,106.73a1.18,1.18,0,0,0-.32.13,1,1,0,0,0-.48.47.65.65,0,0,0,0,.59.64.64,0,0,0,.42.34.89.89,0,0,0,.61-.12A2.21,2.21,0,0,0,86.62,107.92Z" transform="translate(-2.27 -3.41)"></path><path class="cls-1" d="M78.87,107.32l.72,1.59c.3.66.55,1.23.74,1.71h0c-.09-.62-.15-1.22-.19-1.82L80,106.94l.74-.3,1.11,1.44c.35.45.7,1,1.05,1.49h0c-.25-.66-.46-1.25-.64-1.77l-.57-1.63.88-.36L84,110.13l-1.27.51-1-1.24c-.35-.45-.67-.9-1-1.35h0c.1.61.17,1.17.21,1.67l.13,1.58-1.25.51-1.94-4.12Z" transform="translate(-2.27 -3.41)"></path><path class="cls-1" d="M75.35,109.66l1.25-.37,0-1.21,1-.3,0,4.75-1.29.38-2.65-4,1.06-.32Zm1.32.41-1,.28.55.85.47.77h0q0-.09,0-.42c0-.22,0-.38,0-.48Z" transform="translate(-2.27 -3.41)"></path><path class="cls-1" d="M74,113.56l-1,.2-.74-3.62-1.56.32.74,3.62-1,.21-.75-3.66-.45.06-.34-1.89.76-.16.29,1.11,3.14-.64Z" transform="translate(-2.27 -3.41)"></path><path class="cls-1" d="M69.22,114.42l-1,.14-.63-4.5,1-.14Z" transform="translate(-2.27 -3.41)"></path><path class="cls-1" d="M67.13,114.77l-.94.07-.11-1.34c0-.73-.09-1.41-.1-2.06h0q-.31.87-.69,1.68L64.43,115l-1,.08L63,110.53l.94-.08.1,1.34a17.5,17.5,0,0,1,.07,1.91h0a15,15,0,0,1,.65-1.67l.8-1.7,1.16-.09Zm-.8,1.1-.69,0q0-.4-.33-.39c-.19,0-.28.16-.28.44l-.69,0c0-.55.32-.86,1-.9A.84.84,0,0,1,66.33,115.87Z" transform="translate(-2.27 -3.41)"></path><path class="cls-1" d="M62.16,115.1l-1,0,0-1.74-1.69,0,0,1.75-1,0,.07-4.54,1,0,0,1.9,1.69,0,0-1.9,1,0Z" transform="translate(-2.27 -3.41)"></path><path class="cls-1" d="M55.23,114.86a2,2,0,0,1-1.51-.81,2.72,2.72,0,0,1,.38-3.38,2.12,2.12,0,0,1,1.67-.48,2,2,0,0,1,1.49.81,2.68,2.68,0,0,1-.37,3.35A2.11,2.11,0,0,1,55.23,114.86Zm-.65-1.33a.92.92,0,0,0,.75.52.94.94,0,0,0,.85-.35,1.92,1.92,0,0,0,.4-1.08,1.82,1.82,0,0,0-.18-1.12.92.92,0,0,0-.76-.5.91.91,0,0,0-.84.35,1.88,1.88,0,0,0-.4,1.07A1.82,1.82,0,0,0,54.58,113.53Z" transform="translate(-2.27 -3.41)"></path><path class="cls-1" d="M52.16,114.37l-2.69-.48.14-.83,1.69.3.66-3.64,1,.18Z" transform="translate(-2.27 -3.41)"></path><path class="cls-1" d="M47,113.37a2,2,0,0,1-1.37-1,2.4,2.4,0,0,1-.14-1.74,2.45,2.45,0,0,1,1-1.55,2.11,2.11,0,0,1,1.72-.21,1.94,1.94,0,0,1,1.35,1,2.48,2.48,0,0,1,.15,1.75,2.45,2.45,0,0,1-1,1.5A2.06,2.06,0,0,1,47,113.37ZM46.55,112a.88.88,0,0,0,.67.62.92.92,0,0,0,.89-.21,1.94,1.94,0,0,0,.56-1,1.91,1.91,0,0,0,0-1.14,1,1,0,0,0-.68-.61.92.92,0,0,0-.88.22,1.94,1.94,0,0,0-.56,1A1.85,1.85,0,0,0,46.55,112Z" transform="translate(-2.27 -3.41)"></path><path class="cls-1" d="M42.65,112l-3.42-1.32,1.63-4.24,1,.37-1.33,3.45,1.51.58,1.33-3.45,1,.37Z" transform="translate(-2.27 -3.41)"></path><path class="cls-1" d="M40.13,106.15l-1.94,4a8.08,8.08,0,0,1-1.29-.51,2.23,2.23,0,0,1-1.1-.93,1.28,1.28,0,0,1,0-1.16,1.34,1.34,0,0,1,.85-.79,2.05,2.05,0,0,1,1.53.21,1.65,1.65,0,0,1,.31.17l.7-1.47Zm-2.55,2.94.58-1.21-.29-.17a1,1,0,0,0-.67-.1.65.65,0,0,0-.45.38.61.61,0,0,0,0,.54.94.94,0,0,0,.46.41A1.44,1.44,0,0,0,37.58,109.09Z" transform="translate(-2.27 -3.41)"></path><path class="cls-1" d="M32.63,107.46a2,2,0,0,1-1-1.37,2.74,2.74,0,0,1,1.75-2.91,2.13,2.13,0,0,1,1.73.27,2,2,0,0,1,1,1.35,2.44,2.44,0,0,1-.35,1.73,2.42,2.42,0,0,1-1.39,1.16A2.08,2.08,0,0,1,32.63,107.46Zm0-1.48a.88.88,0,0,0,.46.78.92.92,0,0,0,.92,0,1.87,1.87,0,0,0,.82-.81,1.84,1.84,0,0,0,.3-1.1.94.94,0,0,0-.48-.77.92.92,0,0,0-.91,0,2,2,0,0,0-.82.81A2,2,0,0,0,32.6,106Z" transform="translate(-2.27 -3.41)"></path><path class="cls-1" d="M29.57,101l.34-.75a2.72,2.72,0,0,1,1.06.51A2.34,2.34,0,0,1,32,102.25a2.21,2.21,0,0,1-.44,1.7,2.26,2.26,0,0,1-1.6,1,2.52,2.52,0,0,1-1.81-.5,2.4,2.4,0,0,1-.8-.81l.64-.54a2.3,2.3,0,0,0,.61.64,1.45,1.45,0,0,0,1.07.28,1.47,1.47,0,0,0,1-.68,1.5,1.5,0,0,0,.32-1.11,1.46,1.46,0,0,0-.64-.94A2.23,2.23,0,0,0,29.57,101Z" transform="translate(-2.27 -3.41)"></path><path class="cls-1" d="M28.7,99.1l-2.34,2.83.94.79-.55.66-2.68-2.22.55-.67.95.79,2.34-2.83Z" transform="translate(-2.27 -3.41)"></path><path class="cls-1" d="M22.1,99.44a2,2,0,0,1-.69-1.57,2.45,2.45,0,0,1,.74-1.59,2.4,2.4,0,0,1,1.65-.83,2.09,2.09,0,0,1,1.61.66,2,2,0,0,1,.67,1.56,2.45,2.45,0,0,1-.74,1.59,2.38,2.38,0,0,1-1.63.8A2,2,0,0,1,22.1,99.44ZM22.4,98a.93.93,0,0,0,.28.88.94.94,0,0,0,.88.25,1.89,1.89,0,0,0,1-.6,1.78,1.78,0,0,0,.55-1,1,1,0,0,0-1.16-1.11A1.93,1.93,0,0,0,23,97,2,2,0,0,0,22.4,98Z" transform="translate(-2.27 -3.41)"></path><path class="cls-1" d="M23.37,94.18,20,97.13a9,9,0,0,1-1-1,2.23,2.23,0,0,1-.64-1.28,1.23,1.23,0,0,1,.47-1.06,1.38,1.38,0,0,1,1.08-.4,2.14,2.14,0,0,1,1.34.79c.09.12.16.21.21.29l1.22-1.08Zm-3.49,1.71,1-.88a1.38,1.38,0,0,0-.2-.28,1,1,0,0,0-.58-.36.68.68,0,0,0-.56.18.65.65,0,0,0-.23.48,1,1,0,0,0,.27.57A1.85,1.85,0,0,0,19.88,95.89Z" transform="translate(-2.27 -3.41)"></path><path class="cls-1" d="M17.53,94.4l-.7-.92L17.74,92c.06-.1.15-.24.27-.41l.23-.37h0l-.36.14-.5.2-1.59.58-.65-.87,2.31-.66a7.63,7.63,0,0,1,2-.38,1.49,1.49,0,0,1,1.2.61,1.53,1.53,0,0,1,.25.44l-.7.44a3.31,3.31,0,0,0-.18-.29.58.58,0,0,0-.33-.23.7.7,0,0,0-.38,0c-.06,0-.11.06-.16.14Z" transform="translate(-2.27 -3.41)"></path><path class="cls-1" d="M14,89.51l-.53-.88,1.5-.89-.87-1.45-1.5.89-.53-.88L16,84l.53.88-1.63,1,.87,1.45,1.62-1,.53.88Z" transform="translate(-2.27 -3.41)"></path><path class="cls-1" d="M13.48,81.65l.57,1.17,1.19-.22.47,1L11,84.3l-.59-1.21,3.46-3.27.49,1ZM13.3,83l-.44-.9-.74.68-.69.58v0l.4-.1.47-.1Z" transform="translate(-2.27 -3.41)"></path><path class="cls-1" d="M9.54,81l-.37-1,1.63-.62-.6-1.58-1.63.62-.37-1,4.24-1.63.37,1L11,77.53l.61,1.58,1.77-.68.37.95Z" transform="translate(-2.27 -3.41)"></path><path class="cls-1" d="M7.54,75.5l-.3-1.12,1.41-1.06L9.06,73l.35-.25v0H8.48L6.79,72.7l-.27-1,2.38.25a7.68,7.68,0,0,1,2,.41,1.47,1.47,0,0,1,.89,1,1.6,1.6,0,0,1,.06.51L11,74a1.4,1.4,0,0,0,0-.34.62.62,0,0,0-.22-.34.79.79,0,0,0-.34-.15.26.26,0,0,0-.21.07Z" transform="translate(-2.27 -3.41)"></path><path class="cls-1" d="M6.4,71l-.18-1,1.86-.34,0-.09L6,68.69l-.22-1.23L8,68.65a1.23,1.23,0,0,1,.25-.7,2.16,2.16,0,0,1,.64-.52c.67-.37,1.1-.62,1.31-.77l.2,1.09c-.11.07-.41.25-.92.52a1.77,1.77,0,0,0-.6.45.71.71,0,0,0-.12.62l0,.19,1.87-.35.18,1Z" transform="translate(-2.27 -3.41)"></path><path class="cls-1" d="M10.17,66.33l-4.45.47a8.86,8.86,0,0,1-.24-1.37A2.18,2.18,0,0,1,5.69,64a1.24,1.24,0,0,1,1-.59,1.37,1.37,0,0,1,1.11.3,2,2,0,0,1,.63,1.41,1.51,1.51,0,0,1,0,.36l1.63-.18Zm-3.84-.62,1.33-.14a1.44,1.44,0,0,0,0-.35,1,1,0,0,0-.26-.62.65.65,0,0,0-.56-.17.61.61,0,0,0-.47.26.89.89,0,0,0-.11.61A1.7,1.7,0,0,0,6.33,65.71Z" transform="translate(-2.27 -3.41)"></path><path class="cls-1" d="M8.61,60.55l0,1.3,1.18.28,0,1.06L5.28,62l0-1.34,4.49-1.57,0,1.11Zm-.73,1.18,0-1-1,.32L6,61.3H6l.41.08.48.1Z" transform="translate(-2.27 -3.41)"></path><path class="cls-1" d="M4.9,58.54a.48.48,0,0,1-.15.32.44.44,0,0,1-.32.13.5.5,0,0,1-.33-.14A.48.48,0,0,1,4,58.51a.45.45,0,0,1,.14-.31.49.49,0,0,1,.34-.12.45.45,0,0,1,.32.14A.41.41,0,0,1,4.9,58.54Zm-.1-1.72a.44.44,0,0,1,.13.33.43.43,0,0,1-.14.32.48.48,0,0,1-.66,0A.44.44,0,0,1,4,57.12a.42.42,0,0,1,.14-.32.4.4,0,0,1,.33-.12A.42.42,0,0,1,4.8,56.82Zm.36,1.54,0-1,4.54.11,0,1Z" transform="translate(-2.27 -3.41)"></path><path class="cls-1" d="M5.23,56.23l.08-1,1.74.15.15-1.69-1.74-.15.09-1,4.52.4-.08,1-1.9-.17L8,55.44l1.89.16-.09,1Z" transform="translate(-2.27 -3.41)"></path><path class="cls-1" d="M5.75,51.33l.16-.93,1.33.24c.71.12,1.38.26,2,.41v0c-.51-.34-1-.71-1.45-1.08L6.22,48.67l.18-1,4.48.79-.17.93-1.32-.24a18.55,18.55,0,0,1-1.87-.4v0a13.26,13.26,0,0,1,1.45,1L10.42,51l-.2,1.14Z" transform="translate(-2.27 -3.41)"></path></svg> 